<svg id="Layer_1" xmlns="http://www.w3.org/2000/svg" width="56" height="56" data-supported-dps="56x56">
  <defs>
    <style>
      .cls-2{fill:#005e93}.cls-3{fill:#fff}
    </style>
  </defs>
  <path d="M28 50.5A22.5 22.5 0 1150.5 28 22.53 22.53 0 0128 50.5z" fill="#9bdaf3"/>
  <path class="cls-2" d="M28 7A21 21 0 117 28 21 21 0 0128 7m0-3a24 24 0 1024 24A24 24 0 0028 4z"/>
  <path class="cls-3" d="M29.53 29.22L26 27.92v-1.68a4.49 4.49 0 002-3.74v-3a4.5 4.5 0 00-9 0v3a4.49 4.49 0 002 3.74v1.68l-3.53 1.3a5.34 5.34 0 00-3.47 5V37h19v-2.76a5.34 5.34 0 00-3.47-5.02zM33.5 28.37a8.24 8.24 0 012.5 5.87V37h7v-2.46a4.27 4.27 0 00-2.74-4l-2.76-1v-1.17A3.49 3.49 0 0039 25.5v-2a3.5 3.5 0 00-7 0v2a3.58 3.58 0 001.5 2.87z"/>
  <circle class="cls-3" cx="45.5" cy="45.5" r="9"/>
  <path class="cls-2" d="M45.5 38a7.5 7.5 0 11-7.5 7.5 7.51 7.51 0 017.5-7.5m0-3A10.5 10.5 0 1056 45.5 10.5 10.5 0 0045.5 35z"/>
  <path fill="#00a0dc" d="M51 44h-4v-4h-3v4h-4v3h4v4h3v-4h4v-3z"/>
</svg>
