<?xml version="1.0" encoding="utf-8"?>
<!-- Generator: Adobe Illustrator 17.1.0, SVG Export Plug-In . SVG Version: 6.00 Build 0)  -->
<!DOCTYPE svg PUBLIC "-//W3C//DTD SVG 1.1//EN" "http://www.w3.org/Graphics/SVG/1.1/DTD/svg11.dtd">
<svg version="1.1" xmlns="http://www.w3.org/2000/svg" xmlns:xlink="http://www.w3.org/1999/xlink" x="0px" y="0px"
	 width="230px" height="230px" viewBox="0 0 230 230" enable-background="new 0 0 230 230" xml:space="preserve">
<g id="empty_jobs">
	<g>
		<path fill="#FFFFFF" d="M97,100.5V78.976c0-4.129,3.07-7.476,6.857-7.476h22.286c3.771,0,6.857,3.364,6.857,7.476V100.5h-8.4
			V81.862c0-1.652-1.228-2.99-2.743-2.99h-13.714c-1.148-0.066-2.239,1.248-2.743,2.99V100.5H97z"/>
		<g>
			<polyline fill="none" stroke="#00A0DC" stroke-width="3" stroke-linejoin="round" points="99,100.5 97,100.5 97,98.5 			"/>
			<path fill="none" stroke="#00A0DC" stroke-width="3" stroke-linejoin="round" stroke-dasharray="3.9917,3.9917" d="M97,94.508
				V78.976c0-4.129,3.07-7.476,6.857-7.476h22.286c3.771,0,6.857,3.364,6.857,7.476v17.528"/>
			<polyline fill="none" stroke="#00A0DC" stroke-width="3" stroke-linejoin="round" points="133,98.5 133,100.5 131,100.5 			"/>
			<polyline fill="none" stroke="#00A0DC" stroke-width="3" stroke-linejoin="round" points="126.6,100.5 124.6,100.5 124.6,98.5
							"/>
			<path fill="none" stroke="#00A0DC" stroke-width="3" stroke-linejoin="round" stroke-dasharray="4.294,4.294" d="M124.6,94.206
				V81.862c0-1.652-1.228-2.99-2.743-2.99h-13.714c-1.148-0.066-2.239,1.248-2.743,2.99v14.491"/>
			<polyline fill="none" stroke="#00A0DC" stroke-width="3" stroke-linejoin="round" points="105.4,98.5 105.4,100.5 103.4,100.5
							"/>
		</g>
	</g>
	<g>
		<rect x="72" y="88.431" fill="#FFFFFF" width="86" height="56.069"/>
		<g>
			<polyline fill="none" stroke="#00A0DC" stroke-width="3" stroke-linejoin="round" points="158,142.5 158,144.5 156,144.5 			"/>

				<line fill="none" stroke="#00A0DC" stroke-width="3" stroke-linejoin="round" stroke-dasharray="3.9048,3.9048" x1="152.095" y1="144.5" x2="75.952" y2="144.5"/>
			<polyline fill="none" stroke="#00A0DC" stroke-width="3" stroke-linejoin="round" points="74,144.5 72,144.5 72,142.5 			"/>

				<line fill="none" stroke="#00A0DC" stroke-width="3" stroke-linejoin="round" stroke-dasharray="4.0053,4.0053" x1="72" y1="138.495" x2="72" y2="92.434"/>
			<polyline fill="none" stroke="#00A0DC" stroke-width="3" stroke-linejoin="round" points="72,90.431 72,88.431 74,88.431 			"/>

				<line fill="none" stroke="#00A0DC" stroke-width="3" stroke-linejoin="round" stroke-dasharray="3.9048,3.9048" x1="77.905" y1="88.431" x2="154.048" y2="88.431"/>
			<polyline fill="none" stroke="#00A0DC" stroke-width="3" stroke-linejoin="round" points="156,88.431 158,88.431 158,90.431
				"/>

				<line fill="none" stroke="#00A0DC" stroke-width="3" stroke-linejoin="round" stroke-dasharray="4.0053,4.0053" x1="158" y1="94.436" x2="158" y2="140.497"/>
		</g>
	</g>

		<line fill="none" stroke="#005E93" stroke-width="3.1338" stroke-linejoin="round" stroke-miterlimit="10" x1="42" y1="147" x2="188" y2="147"/>

		<line fill="none" stroke="#00A0DC" stroke-width="3.0245" stroke-linejoin="round" stroke-miterlimit="10" stroke-dasharray="4.0327" x1="76.5" y1="115" x2="153.5" y2="115"/>
	<rect x="107.421" y="110.27" fill="#FFFFFF" width="15.662" height="9.443"/>
	<rect x="108.5" y="107.811" fill="#9BDAF3" width="13" height="12"/>
</g>
</svg>
